HIERARCHY
ROOT Hips
{
	OFFSET -0.179506 -22.333345 2.821913
	CHANNELS 6 Xposition Yposition Zposition Zrotation Yrotation Xrotation 
	JOINT LeftUpLeg
	{
		OFFSET 6.951974 -9.140623 -0.681533
		CHANNELS 3 Zrotation Yrotation Xrotation
		JOINT LeftLeg
		{
			OFFSET 3.427654 -37.519855 -0.449580
			CHANNELS 3 Zrotation Yrotation Xrotation
			JOINT LeftFoot
			{
				OFFSET -1.359570 -39.796059 -4.369333
				CHANNELS 3 Zrotation Yrotation Xrotation
				JOINT LeftToe
				{
					OFFSET 2.635814 -5.579078 11.928840
					CHANNELS 3 Zrotation Yrotation Xrotation
					End Site
					{
						OFFSET 0.000000 0.000000 0.000000
					}
				}
			}
		}
	}
	JOINT RightUpLeg
	{
		OFFSET -6.767048 -9.052170 -0.431982
		CHANNELS 3 Zrotation Yrotation Xrotation
		JOINT RightLeg
		{
			OFFSET -3.829005 -38.256897 -0.885003
			CHANNELS 3 Zrotation Yrotation Xrotation
			JOINT RightFoot
			{
				OFFSET 1.577377 -39.841461 -4.231180
				CHANNELS 3 Zrotation Yrotation Xrotation
				JOINT RightToe
				{
					OFFSET -2.537174 -4.814398 12.334795
					CHANNELS 3 Zrotation Yrotation Xrotation
					End Site
					{
						OFFSET 0.000000 0.000000 0.000000
					}
				}
			}
		}
	}
	JOINT Spine
	{
		OFFSET -0.253288 10.896323 -2.669631
		CHANNELS 3 Zrotation Yrotation Xrotation
		JOINT Spine1
		{
			OFFSET 0.548704 13.518043 0.109247
			CHANNELS 3 Zrotation Yrotation Xrotation
			JOINT Spine2
			{
				OFFSET 0.145701 5.292222 2.542457
				CHANNELS 3 Zrotation Yrotation Xrotation
				JOINT Neck
				{
					OFFSET -0.277840 21.387037 -4.285703
					CHANNELS 3 Zrotation Yrotation Xrotation
					JOINT Head
					{
						OFFSET 0.515184 6.496960 5.134897
						CHANNELS 3 Zrotation Yrotation Xrotation
						End Site
						{
							OFFSET 0.000000 0.000000 0.000000
						}
					}
				}
				JOINT LeftShoulder
				{
					OFFSET 7.884473 12.174932 -3.408961
					CHANNELS 3 Zrotation Yrotation Xrotation
					JOINT LeftArm
					{
						OFFSET 9.097692 3.046888 -0.886815
						CHANNELS 3 Zrotation Yrotation Xrotation
						JOINT LeftForeArm
						{
							OFFSET 25.961220 -1.277207 -2.745643
							CHANNELS 3 Zrotation Yrotation Xrotation
							JOINT LeftHand
							{
								OFFSET 24.923361 0.898606 -0.117091
								CHANNELS 3 Zrotation Yrotation Xrotation
								End Site
								{
									OFFSET 0.000000 0.000000 0.000000
								}
							}
						}
					}
				}
				JOINT RightShoulder
				{
					OFFSET -8.175920 11.883285 -3.861528
					CHANNELS 3 Zrotation Yrotation Xrotation
					JOINT RightArm
					{
						OFFSET -9.601238 3.255117 -0.914307
						CHANNELS 3 Zrotation Yrotation Xrotation
						JOINT RightForeArm
						{
							OFFSET -25.374195 -1.332924 -2.140099
							CHANNELS 3 Zrotation Yrotation Xrotation
							JOINT RightHand
							{
								OFFSET -25.529810 0.777228 -0.555919
								CHANNELS 3 Zrotation Yrotation Xrotation
								End Site
								{
									OFFSET 0.000000 0.000000 0.000000
								}
							}
						}
					}
				}
			}
		}
	}
}
MOTION
Frames: 16
Frame Time: 0.033333
62.496754 59.016376 95.748444 -174.166645 1.495599 90.028776 3.739527 4.820029 4.418307 -2.007211 -10.212868 -6.798965 -1.373010 12.925807 -4.557713 nan nan nan -0.174259 -7.109628 3.173442 1.747164 6.329937 -3.325508 5.189124 -13.619557 -6.877607 nan nan nan 1.909003 -0.724262 -0.215404 -1.864487 -4.357075 -9.912342 2.157777 1.606887 -0.940844 -2.869277 -4.110873 -1.783885 6.357498 2.551428 -5.433337 40.699543 -9.101288 -26.417801 13.635918 -43.475348 -41.710360 19.575317 -10.668106 -16.888662 9.826107 -20.400690 -37.830127 -41.734838 10.891914 -23.029957 -16.164734 33.146761 -42.114231 -17.291016 16.472456 -26.529815 -6.934062 13.947685 -42.830573 
62.465698 59.003075 95.755585 -174.049592 1.500629 90.012334 3.693110 4.819239 4.360839 -1.969680 -10.160903 -6.705577 -1.384528 12.902993 -4.542088 nan nan nan -0.203869 -7.166019 3.213954 1.759050 6.305429 -3.362545 5.147357 -13.586395 -6.811902 nan nan nan 1.995708 -0.701941 -0.140582 -1.899463 -4.394932 -9.963696 2.099161 1.574631 -0.971113 -2.898065 -4.154880 -1.775405 6.376803 2.560706 -5.356596 40.721232 -9.145560 -26.407238 13.596512 -43.540009 -41.708390 19.675891 -10.614784 -16.865847 9.864589 -20.400360 -37.843578 -41.712262 10.904582 -23.016122 -16.171773 33.090890 -42.078982 -17.261779 16.492493 -26.391514 -6.835008 13.927737 -42.827767 
62.463894 59.002602 95.759552 -174.023057 1.500245 89.968639 3.682527 4.843907 4.407228 -1.940846 -10.128572 -6.710523 -1.372120 12.894279 -4.557344 nan nan nan -0.208122 -7.171086 3.282396 1.745730 6.300488 -3.389022 5.137079 -13.574474 -6.772506 nan nan nan 1.986315 -0.694953 -0.078216 -1.895206 -4.411464 -9.996416 2.097508 1.561983 -0.967756 -2.897719 -4.194865 -1.762893 6.386704 2.529204 -5.351544 40.760346 -9.122277 -26.341737 13.546004 -43.525761 -41.688007 19.662837 -10.650803 -16.835714 10.037909 -20.400970 -37.951661 -41.732910 10.880757 -22.989289 -16.100482 33.109410 -42.016683 -17.287091 16.510239 -26.434373 -7.060644 13.884355 -43.007386 
62.484737 59.014206 95.763611 -174.083457 1.496185 89.918697 3.693017 4.878037 4.489256 -1.932686 -10.106770 -6.732830 -1.345003 12.895796 -4.553725 nan nan nan -0.195679 -7.154388 3.347032 1.731374 6.288110 -3.437293 5.097628 -13.566496 -6.712031 nan nan nan 1.911942 -0.673483 -0.061274 -1.879290 -4.377852 -9.966265 2.140206 1.553512 -0.973443 -2.901908 -4.208579 -1.762706 6.400482 2.536148 -5.397266 40.763775 -9.131328 -26.317639 13.524789 -43.500792 -41.655673 19.666080 -10.699294 -16.850541 10.058673 -20.409724 -37.931184 -41.754454 10.866790 -23.002382 -15.995010 33.145946 -41.946777 -17.332720 16.527376 -26.513022 -7.069653 13.914790 -43.044279 
62.497013 59.019810 95.757599 -174.134523 1.481349 89.920216 3.692016 4.884080 4.521493 -1.916400 -10.141946 -6.781451 -1.305004 12.914491 -4.514077 nan nan nan -0.208059 -7.122922 3.370804 1.734171 6.318910 -3.526878 5.050513 -13.619729 -6.611434 nan nan nan 1.861328 -0.681359 -0.106322 -1.875270 -4.352972 -9.910573 2.170302 1.563238 -0.969628 -2.947009 -4.189216 -1.748022 6.455709 2.590477 -5.446132 40.756964 -9.145241 -26.365949 13.574667 -43.476341 -41.670923 19.606215 -10.672814 -16.901775 9.978603 -20.375192 -37.878119 -41.783784 10.882110 -23.028870 -15.977717 33.122671 -41.934393 -17.335103 16.505201 -26.595730 -6.958569 13.968836 -42.919999 
62.508076 59.014240 95.753418 -174.154829 1.472069 89.940046 3.702586 4.860608 4.506691 -1.939159 -10.183186 -6.793473 -1.297533 12.911474 -4.543262 nan nan nan -0.221099 -7.120992 3.330131 1.746070 6.344407 -3.476663 5.115081 -13.623484 -6.665537 nan nan nan 1.845206 -0.701192 -0.125892 -1.871247 -4.357071 -9.914418 2.168430 1.571018 -0.956899 -2.906630 -4.111242 -1.810449 6.470384 2.586657 -5.400127 40.743468 -9.114922 -26.378485 13.643707 -43.480051 -41.718591 19.521873 -10.637412 -16.916728 9.898103 -20.423188 -37.894839 -41.747683 10.886957 -23.013361 -16.053416 33.148849 -41.990887 -17.333238 16.466951 -26.591252 -6.892364 13.983497 -42.830989 
62.515350 59.012619 95.758774 -174.161448 1.462027 89.949682 3.706332 4.844429 4.497062 -1.977372 -10.188866 -6.798706 -1.330385 12.894723 -4.585112 nan nan nan -0.227205 -7.129653 3.302716 1.749106 6.330550 -3.395207 5.228417 -13.595776 -6.758643 nan nan nan 1.839991 -0.708045 -0.117897 -1.873966 -4.351833 -9.938536 2.165751 1.558385 -0.944590 -2.878012 -4.066460 -1.865567 6.420737 2.544362 -5.364292 40.721749 -9.061491 -26.353267 13.660189 -43.500013 -41.734983 19.509393 -10.661844 -16.879561 9.908542 -20.532702 -37.950595 -41.718253 10.867811 -22.982401 -16.112980 33.191232 -42.065917 -17.334232 16.429877 -26.564294 -6.928644 14.017920 -42.806251 
62.512348 59.007168 95.765907 -174.158328 1.469392 89.927105 3.724439 4.859437 4.512740 -2.028596 -10.153478 -6.798802 -1.363930 12.889976 -4.605015 nan nan nan -0.221858 -7.156456 3.300939 1.740298 6.302920 -3.338095 5.298180 -13.556491 -6.824892 nan nan nan 1.845470 -0.687833 -0.069613 -1.879576 -4.332936 -9.957415 2.178962 1.536571 -0.947921 -2.887833 -4.115132 -1.867424 6.369028 2.534710 -5.353685 40.724834 -9.041506 -26.377427 13.607513 -43.552136 -41.709933 19.548317 -10.654126 -16.885099 9.983641 -20.569700 -37.963037 -41.729303 10.851126 -22.983692 -16.096346 33.173117 -42.066215 -17.332713 16.447577 -26.505654 -6.874902 14.055195 -42.769035 
62.508343 58.992542 95.765381 -174.138805 1.478910 89.944837 3.728520 4.839645 4.456274 -2.035309 -10.167093 -6.750075 -1.370527 12.882562 -4.615013 nan nan nan -0.212529 -7.153920 3.259284 1.745077 6.295346 -3.326744 5.250735 -13.560413 -6.817869 nan nan nan 1.858684 -0.672625 -0.067196 -1.885059 -4.319474 -9.973406 2.183057 1.534599 -0.949157 -2.946219 -4.181935 -1.844777 6.348405 2.558789 -5.422938 40.725776 -9.068784 -26.409149 13.583238 -43.577087 -41.697735 19.586526 -10.635408 -16.898920 9.925217 -20.550267 -37.904838 -41.758371 10.858368 -22.998738 -16.059744 33.103029 -42.021580 -17.314462 16.477719 -26.484813 -6.764130 14.094287 -42.779835 
62.503155 58.989151 95.761864 -174.131994 1.480151 89.945018 3.728182 4.836089 4.451141 -2.027786 -10.166115 -6.739236 -1.374758 12.883286 -4.622658 nan nan nan -0.208593 -7.153417 3.259127 1.741754 6.292800 -3.331891 5.244158 -13.561484 -6.809581 nan nan nan 1.858952 -0.670540 -0.068916 -1.884999 -4.322422 -9.973213 2.183660 1.535288 -0.947009 -2.946450 -4.183668 -1.844562 6.345239 2.558511 -5.428267 40.724256 -9.076440 -26.409720 13.586747 -43.572184 -41.702454 19.588270 -10.638351 -16.901841 9.912532 -20.545589 -37.890962 -41.758428 10.856418 -23.004471 -16.055752 33.102571 -42.019425 -17.315091 16.480254 -26.485488 -6.762902 14.087265 -42.774838 
62.500973 58.970074 95.751610 -174.076380 1.500681 89.975247 3.706513 4.799871 4.354537 -1.957506 -10.161452 -6.637618 -1.405871 12.896497 -4.716236 nan nan nan -0.161629 -7.161157 3.228157 1.713805 6.288083 -3.339220 5.242578 -13.578652 -6.770610 nan nan nan 1.872993 -0.676168 -0.106198 -1.871527 -4.369007 -9.967944 2.178157 1.550548 -0.907907 -2.931413 -4.148462 -1.924407 6.286556 2.553208 -5.357293 40.734668 -9.115439 -26.401922 13.612486 -43.521018 -41.747873 19.622119 -10.645961 -16.917246 9.769939 -20.449289 -37.828422 -41.738462 10.811718 -23.075016 -16.051825 33.161711 -42.050267 -17.322607 16.490527 -26.546907 -6.695273 14.037652 -42.705287 
62.502373 58.957668 95.742073 -174.082831 1.504123 90.010894 3.683035 4.771856 4.297611 -1.921371 -10.185063 -6.606379 -1.433687 12.903900 -4.784819 nan nan nan -0.138017 -7.137899 3.180956 1.698382 6.270993 -3.344719 5.242999 -13.596987 -6.797330 nan nan nan 1.877651 -0.689244 -0.135027 -1.860970 -4.372664 -9.990349 2.156193 1.570542 -0.877308 -2.918624 -4.133225 -1.972274 6.279857 2.537274 -5.274304 40.742534 -9.098457 -26.404004 13.636590 -43.538723 -41.783624 19.628238 -10.647601 -16.944187 9.828097 -20.433303 -37.797688 -41.727927 10.756942 -23.115922 -16.011321 33.223484 -42.014589 -17.314468 16.493282 -26.620252 -6.780671 14.012354 -42.762118 
62.505997 58.960579 95.743477 -174.096751 1.510764 90.009079 3.690124 4.756026 4.296924 -1.901688 -10.177356 -6.595553 -1.433117 12.901603 -4.777811 nan nan nan -0.137049 -7.127182 3.191383 1.700974 6.251944 -3.366091 5.185668 -13.565712 -6.777659 nan nan nan 1.877523 -0.703607 -0.118573 -1.860485 -4.367020 -9.987163 2.144192 1.599395 -0.912433 -2.903464 -4.122730 -1.955200 6.320083 2.536837 -5.253980 40.769786 -9.077969 -26.409104 13.628851 -43.578950 -41.779603 19.631474 -10.613523 -16.935809 9.817180 -20.497073 -37.766522 -41.715726 10.764090 -23.094065 -15.985801 33.192127 -41.982696 -17.309330 16.508897 -26.571618 -6.787969 14.023417 -42.858641 
62.494789 58.973816 95.757294 -174.050146 1.504453 89.982064 3.699683 4.772605 4.348270 -1.932091 -10.129690 -6.658477 -1.425286 12.889603 -4.696404 nan nan nan -0.159850 -7.137249 3.265987 1.701222 6.236946 -3.443888 5.142038 -13.556744 -6.701683 nan nan nan 1.877293 -0.690082 -0.101463 -1.876857 -4.378843 -9.992533 2.136951 1.594455 -0.936067 -2.880773 -4.144243 -1.884702 6.346409 2.528607 -5.207500 40.753562 -9.120788 -26.401731 13.647718 -43.635913 -41.796643 19.631953 -10.598073 -16.969018 9.893124 -20.519999 -37.721038 -41.688014 10.761574 -23.061699 -15.928842 33.183522 -41.912985 -17.321009 16.549134 -26.507907 -6.849414 13.995416 -42.850196 
62.486141 58.970257 95.769348 -174.030024 1.488015 89.971235 3.677307 4.777217 4.357481 -1.948559 -10.083080 -6.676651 -1.355812 12.883368 -4.644413 nan nan nan -0.201454 -7.126590 3.276584 1.747467 6.203688 -3.447858 5.117914 -13.560549 -6.665453 nan nan nan 1.862571 -0.672228 -0.063796 -1.883990 -4.377847 -10.033465 2.139256 1.584377 -0.934815 -2.871188 -4.160129 -1.868599 6.318782 2.491265 -5.180420 40.700765 -9.153164 -26.408927 13.703363 -43.698660 -41.818182 19.648779 -10.577186 -16.976645 9.898256 -20.517044 -37.669894 -41.643054 10.763824 -23.058060 -15.947702 33.200807 -41.899525 -17.326104 16.561795 -26.531073 -6.861865 13.997577 -42.878498 
62.497742 58.964123 95.766014 -174.067849 1.463232 89.980305 3.648940 4.741884 4.340590 -1.933623 -10.097132 -6.659638 -1.282248 12.901891 -4.634044 nan nan nan -0.219515 -7.113782 3.241999 1.753146 6.207615 -3.399278 5.174563 -13.583041 -6.730343 nan nan nan 1.793994 -0.647426 -0.083685 -1.868801 -4.364873 -10.048992 2.159712 1.575409 -0.878859 -2.876015 -4.148741 -1.885247 6.318041 2.446020 -5.228372 40.689654 -9.127666 -26.397146 13.738860 -43.694043 -41.833778 19.646923 -10.597186 -16.938694 9.882971 -20.508721 -37.816803 -41.652170 10.724377 -23.054416 -15.937219 33.228265 -41.892848 -17.367883 16.531864 -26.565625 -6.833628 13.967176 -42.885680 
